<svg xmlns="http://www.w3.org/2000/svg" width="1200" height="630" viewBox="0 0 1200 630">
  <defs>
    <linearGradient id="g" x1="0" x2="1" y1="0" y2="1">
      <stop offset="0%" stop-color="#00ff88"/>
      <stop offset="100%" stop-color="#00d5ff"/>
    </linearGradient>
    <radialGradient id="bg" cx="80%" cy="-10%" r="1">
      <stop offset="0%" stop-color="#00ff88" stop-opacity="0.12"/>
      <stop offset="60%" stop-color="#0a0d10" stop-opacity="0"/>
    </radialGradient>
  </defs>
  <rect width="1200" height="630" fill="#0a0d10"/>
  <rect width="1200" height="630" fill="url(#bg)"/>
  <g stroke="url(#g)" stroke-opacity="0.18">
    <path d="M0,520 C200,460 350,580 580,520 C760,470 920,560 1200,520" fill="none"/>
    <path d="M0,420 C220,360 360,480 590,420 C770,370 940,460 1200,420" fill="none"/>
  </g>
  <g transform="translate(80,140)" fill="#e6f1ff">
    <rect x="0" y="0" width="460" height="350" rx="18" fill="#0f1318" stroke="rgba(255,255,255,.06)"/>
    <text x="32" y="64" fill="url(#g)" font-family="JetBrains Mono, monospace" font-size="52" font-weight="700">CA</text>
    <text x="32" y="124" font-family="Poppins, system-ui" font-size="36" font-weight="700">Camilo Anthony</text>
    <text x="32" y="164" font-family="Poppins, system-ui" font-size="20" fill="#9aa8b2">Diseñador y Programador Web</text>
    <text x="32" y="220" font-family="JetBrains Mono, monospace" font-size="18" fill="#9aa8b2">Diseño × Código × Seguridad</text>
  </g>
  <g transform="translate(620,100)">
    <text x="0" y="0" font-family="Poppins, system-ui" font-size="48" font-weight="700" fill="#e6f1ff">Diseño + Lógica + Tecnología</text>
    <text x="0" y="70" font-family="Poppins, system-ui" font-size="24" fill="#9aa8b2">Portafolio profesional con enfoque en UI/UX, desarrollo, redes y ciberseguridad.</text>
  </g>
</svg>

